<svg width="1060" height="449" viewBox="0 0 1060 449" fill="none" xmlns="http://www.w3.org/2000/svg">
<g filter="url(#filter0_d_101_789)">
<path d="M245.086 70.1514L236.863 64.1321C229.461 58.7138 219.402 58.7138 212.001 64.1321L203.778 70.1514C198.767 73.8191 192.393 75.0871 186.36 73.6159L176.46 71.2016C167.548 69.0283 158.255 72.8776 153.49 80.7159L148.197 89.4239C144.971 94.7298 139.567 98.3406 133.431 99.29L123.36 100.848C114.295 102.251 107.182 109.363 105.78 118.428L104.222 128.499C103.272 134.636 99.6615 140.04 94.3555 143.265L85.6476 148.558C77.8092 153.323 73.9599 162.616 76.1332 171.528L78.5476 181.429C80.0187 187.461 78.7508 193.836 75.0831 198.846L69.0637 207.069C63.6454 214.471 63.6454 224.529 69.0637 231.931L75.0831 240.154C78.7508 245.165 80.0187 251.539 78.5476 257.571L76.1332 267.472C73.9599 276.384 77.8092 285.677 85.6476 290.442L94.3555 295.735C99.6615 298.961 103.272 304.365 104.222 310.501L105.78 320.572C107.182 329.637 114.295 336.749 123.36 338.152L133.431 339.71C139.567 340.66 144.971 344.27 148.197 349.576L153.49 358.284C158.255 366.123 167.548 369.972 176.46 367.799L186.36 365.384C192.393 363.913 198.767 365.181 203.778 368.849L212.001 374.868C219.402 380.286 229.461 380.286 236.863 374.868L245.086 368.849C250.096 365.181 256.471 363.913 262.503 365.384L272.404 367.799C281.316 369.972 290.609 366.123 295.373 358.284L300.667 349.576C303.892 344.27 309.296 340.66 315.433 339.71L325.503 338.152C334.569 336.749 341.681 329.637 343.084 320.572L344.642 310.501C345.591 304.365 349.202 298.961 354.508 295.735L363.216 290.442C371.054 285.677 374.904 276.384 372.73 267.472L370.316 257.571C368.845 251.539 370.113 245.165 373.78 240.154L379.8 231.931C385.218 224.529 385.218 214.471 379.8 207.069L373.78 198.846C370.113 193.836 368.845 187.461 370.316 181.429L372.73 171.528C374.904 162.616 371.054 153.323 363.216 148.558L354.508 143.265C349.202 140.04 345.591 134.636 344.642 128.499L343.084 118.428C341.681 109.363 334.569 102.251 325.503 100.848L315.433 99.29C309.296 98.3406 303.892 94.7298 300.667 89.4239L295.373 80.7159C290.609 72.8775 281.316 69.0283 272.404 71.2016L262.503 73.6159C256.471 75.0871 250.096 73.8191 245.086 70.1514Z" fill="url(#paint0_linear_101_789)"/>
<path d="M245.086 70.1514L236.863 64.1321C229.461 58.7138 219.402 58.7138 212.001 64.1321L203.778 70.1514C198.767 73.8191 192.393 75.0871 186.36 73.6159L176.46 71.2016C167.548 69.0283 158.255 72.8776 153.49 80.7159L148.197 89.4239C144.971 94.7298 139.567 98.3406 133.431 99.29L123.36 100.848C114.295 102.251 107.182 109.363 105.78 118.428L104.222 128.499C103.272 134.636 99.6615 140.04 94.3555 143.265L85.6476 148.558C77.8092 153.323 73.9599 162.616 76.1332 171.528L78.5476 181.429C80.0187 187.461 78.7508 193.836 75.0831 198.846L69.0637 207.069C63.6454 214.471 63.6454 224.529 69.0637 231.931L75.0831 240.154C78.7508 245.165 80.0187 251.539 78.5476 257.571L76.1332 267.472C73.9599 276.384 77.8092 285.677 85.6476 290.442L94.3555 295.735C99.6615 298.961 103.272 304.365 104.222 310.501L105.78 320.572C107.182 329.637 114.295 336.749 123.36 338.152L133.431 339.71C139.567 340.66 144.971 344.27 148.197 349.576L153.49 358.284C158.255 366.123 167.548 369.972 176.46 367.799L186.36 365.384C192.393 363.913 198.767 365.181 203.778 368.849L212.001 374.868C219.402 380.286 229.461 380.286 236.863 374.868L245.086 368.849C250.096 365.181 256.471 363.913 262.503 365.384L272.404 367.799C281.316 369.972 290.609 366.123 295.373 358.284L300.667 349.576C303.892 344.27 309.296 340.66 315.433 339.71L325.503 338.152C334.569 336.749 341.681 329.637 343.084 320.572L344.642 310.501C345.591 304.365 349.202 298.961 354.508 295.735L363.216 290.442C371.054 285.677 374.904 276.384 372.73 267.472L370.316 257.571C368.845 251.539 370.113 245.165 373.78 240.154L379.8 231.931C385.218 224.529 385.218 214.471 379.8 207.069L373.78 198.846C370.113 193.836 368.845 187.461 370.316 181.429L372.73 171.528C374.904 162.616 371.054 153.323 363.216 148.558L354.508 143.265C349.202 140.04 345.591 134.636 344.642 128.499L343.084 118.428C341.681 109.363 334.569 102.251 325.503 100.848L315.433 99.29C309.296 98.3406 303.892 94.7298 300.667 89.4239L295.373 80.7159C290.609 72.8775 281.316 69.0283 272.404 71.2016L262.503 73.6159C256.471 75.0871 250.096 73.8191 245.086 70.1514Z" fill="white" fill-opacity="0.25"/>
<path fill-rule="evenodd" clip-rule="evenodd" d="M245.792 72.2435L237.466 66.2241C230.895 61.4733 221.965 61.4733 215.394 66.2241L207.068 72.2435C201.37 76.363 194.12 77.7872 187.259 76.1348L177.235 73.7204C169.323 71.8149 161.073 75.19 156.842 82.0627L151.483 90.7707C147.814 96.7302 141.669 100.786 134.69 101.852L124.493 103.41C116.445 104.64 110.13 110.876 108.885 118.825L107.308 128.896C106.228 135.788 102.121 141.858 96.0871 145.48L87.27 150.774C80.3111 154.952 76.8938 163.1 78.8232 170.914L81.2678 180.814C82.9409 187.59 81.4989 194.75 77.3277 200.377L71.2329 208.6C66.4226 215.09 66.4226 223.91 71.2329 230.4L77.3277 238.623C81.4989 244.25 82.9409 251.41 81.2678 258.186L78.8232 268.086C76.8938 275.9 80.3111 284.048 87.27 288.226L96.0871 293.52C102.121 297.143 106.228 303.212 107.308 310.104L108.885 320.175C110.13 328.124 116.445 334.36 124.493 335.59L134.69 337.148C141.669 338.214 147.814 342.27 151.483 348.23L156.842 356.937C161.073 363.81 169.323 367.185 177.235 365.28L187.26 362.865C194.12 361.213 201.369 362.637 207.068 366.757L215.394 372.776C221.965 377.527 230.895 377.527 237.466 372.776L245.792 366.757C251.49 362.637 258.74 361.213 265.601 362.865L275.625 365.28C283.537 367.185 291.787 363.81 296.018 356.937L301.377 348.23C305.046 342.27 311.191 338.214 318.17 337.148L328.367 335.59C336.415 334.36 342.73 328.124 343.975 320.175L345.552 310.104C346.632 303.212 350.739 297.143 356.773 293.52L365.59 288.226C372.549 284.048 375.966 275.9 374.037 268.086L371.592 258.186C369.919 251.41 371.361 244.25 375.532 238.623L381.627 230.4C386.437 223.91 386.437 215.09 381.627 208.6L375.532 200.377C371.361 194.75 369.919 187.59 371.592 180.814L374.037 170.914C375.966 163.1 372.549 154.952 365.59 150.774L356.773 145.48C350.739 141.858 346.632 135.788 345.552 128.896L343.975 118.825C342.729 110.876 336.415 104.64 328.367 103.41L318.17 101.852C311.191 100.786 305.046 96.7302 301.377 90.7706L296.018 82.0627C291.787 75.19 283.537 71.8149 275.625 73.7204L265.601 76.1348C258.74 77.7872 251.49 76.363 245.792 72.2435ZM239.017 64.1321L247.343 70.1514C252.416 73.8191 258.87 75.0871 264.979 73.6159L275.003 71.2016C284.027 69.0283 293.436 72.8775 298.261 80.7159L303.621 89.4239C306.886 94.7298 312.358 98.3406 318.571 99.29L328.768 100.848C337.947 102.251 345.149 109.363 346.569 118.428L348.147 128.499C349.108 134.636 352.764 140.04 358.137 143.265L366.954 148.558C374.89 153.323 378.788 162.616 376.587 171.528L374.143 181.429C372.653 187.461 373.937 193.836 377.651 198.846L383.745 207.069C389.232 214.471 389.232 224.529 383.745 231.931L377.651 240.154C373.937 245.165 372.653 251.539 374.143 257.571L376.587 267.472C378.788 276.384 374.89 285.677 366.954 290.442L358.137 295.735C352.764 298.961 349.108 304.365 348.147 310.501L346.569 320.572C345.149 329.637 337.947 336.749 328.768 338.152L318.571 339.71C312.358 340.66 306.886 344.27 303.621 349.576L298.261 358.284C293.436 366.123 284.027 369.972 275.003 367.799L264.979 365.384C258.87 363.913 252.416 365.181 247.343 368.849L239.017 374.868C231.522 380.286 221.338 380.286 213.843 374.868L205.517 368.849C200.444 365.181 193.99 363.913 187.881 365.384L177.857 367.799C168.833 369.972 159.424 366.123 154.599 358.284L149.239 349.576C145.974 344.27 140.502 340.66 134.289 339.71L124.092 338.152C114.913 336.749 107.711 329.637 106.291 320.572L104.713 310.501C103.752 304.365 100.096 298.961 94.7235 295.735L85.9064 290.442C77.9697 285.677 74.0722 276.384 76.2728 267.472L78.7174 257.571C80.207 251.539 78.9231 245.165 75.2095 240.154L69.1146 231.931C63.6285 224.529 63.6284 214.471 69.1146 207.069L75.2094 198.846C78.9231 193.836 80.207 187.461 78.7174 181.429L76.2727 171.528C74.0722 162.616 77.9697 153.323 85.9064 148.558L94.7235 143.265C100.096 140.04 103.752 134.636 104.713 128.499L106.291 118.428C107.711 109.363 114.913 102.251 124.092 100.848L134.289 99.29C140.502 98.3406 145.974 94.7298 149.239 89.4239L154.599 80.7159C159.424 72.8775 168.833 69.0283 177.857 71.2016L187.881 73.6159C193.99 75.0871 200.444 73.8191 205.517 70.1514L213.843 64.1321C221.338 58.7138 231.522 58.7138 239.017 64.1321Z" fill="#1C0057"/>
<path d="M248 152.571V238.571H140.5V152.571H248ZM140.5 128C128.641 128 119 139.019 119 152.571V238.571C119 252.124 128.641 263.143 140.5 263.143H179.905L176.311 275.429H151.25C145.304 275.429 140.5 280.919 140.5 287.714C140.5 294.51 145.304 300 151.25 300H237.25C243.196 300 248 294.51 248 287.714C248 280.919 243.196 275.429 237.25 275.429H212.155L208.561 263.143H248C259.859 263.143 269.5 252.124 269.5 238.571V152.571C269.5 139.019 259.859 128 248 128H140.5ZM296.375 128C287.473 128 280.25 136.254 280.25 146.429V281.571C280.25 291.746 287.473 300 296.375 300H317.875C326.777 300 334 291.746 334 281.571V146.429C334 136.254 326.777 128 317.875 128H296.375ZM301.75 152.571H312.5C315.456 152.571 317.875 155.336 317.875 158.714C317.875 162.093 315.456 164.857 312.5 164.857H301.75C298.794 164.857 296.375 162.093 296.375 158.714C296.375 155.336 298.794 152.571 301.75 152.571ZM296.375 183.286C296.375 179.907 298.794 177.143 301.75 177.143H312.5C315.456 177.143 317.875 179.907 317.875 183.286C317.875 186.664 315.456 189.429 312.5 189.429H301.75C298.794 189.429 296.375 186.664 296.375 183.286ZM307.125 244.714C309.976 244.714 312.71 246.009 314.726 248.313C316.742 250.617 317.875 253.742 317.875 257C317.875 260.258 316.742 263.383 314.726 265.687C312.71 267.991 309.976 269.286 307.125 269.286C304.274 269.286 301.54 267.991 299.524 265.687C297.508 263.383 296.375 260.258 296.375 257C296.375 253.742 297.508 250.617 299.524 248.313C301.54 246.009 304.274 244.714 307.125 244.714Z" fill="black"/>
<rect x="449.661" y="102.825" width="515.877" height="233.349" rx="15.184" fill="#FDFEFE"/>
<rect x="449.661" y="102.825" width="515.877" height="233.349" rx="15.184" stroke="#1C0057" stroke-width="10.1226"/>
<path d="M479.146 207.5V203.891L482.873 203.187V177.711L479.146 177.008V173.375H505.677V182.234H501.084L500.709 177.945H488.779V188.352H500.943V192.922H488.779V203.187L492.505 203.891V207.5H479.146ZM519.177 207.992C516.459 207.992 514.334 207.133 512.802 205.414C511.287 203.68 510.529 200.992 510.529 197.352V186.477L507.669 185.773V182.141H510.529H516.435V197.398C516.435 199.586 516.779 201.125 517.466 202.016C518.169 202.891 519.248 203.328 520.701 203.328C521.982 203.328 523.068 203.078 523.959 202.578C524.865 202.062 525.584 201.336 526.115 200.398V186.477L522.927 185.773V182.141H526.115H532.021V203.187L535.021 203.891V207.5H526.794L526.396 204.055C525.599 205.32 524.584 206.297 523.349 206.984C522.13 207.656 520.74 207.992 519.177 207.992ZM537.505 207.5V203.891L541.044 203.187V175.273L537.294 174.57V170.937H546.927V203.187L550.466 203.891V207.5H537.505ZM552.834 207.5V203.891L556.373 203.187V175.273L552.623 174.57V170.937H562.255V203.187L565.794 203.891V207.5H552.834ZM593.544 207.992C591.216 207.992 589.052 207.703 587.052 207.125C585.052 206.547 583.107 205.586 581.216 204.242V196.391H585.787L586.537 201.477C587.365 202.07 588.38 202.547 589.584 202.906C590.802 203.266 592.123 203.445 593.544 203.445C594.935 203.445 596.099 203.25 597.037 202.859C597.99 202.453 598.716 201.891 599.216 201.172C599.716 200.453 599.966 199.602 599.966 198.617C599.966 197.711 599.748 196.906 599.31 196.203C598.873 195.5 598.146 194.875 597.13 194.328C596.115 193.766 594.74 193.25 593.005 192.781C590.459 192.094 588.326 191.281 586.607 190.344C584.904 189.406 583.615 188.281 582.74 186.969C581.88 185.656 581.451 184.109 581.451 182.328C581.451 180.5 581.943 178.883 582.927 177.477C583.927 176.07 585.31 174.961 587.076 174.148C588.841 173.336 590.88 172.922 593.193 172.906C595.724 172.875 597.959 173.203 599.896 173.891C601.849 174.578 603.498 175.477 604.841 176.586V183.922H600.365L599.521 179.141C598.88 178.687 598.044 178.305 597.013 177.992C595.998 177.664 594.794 177.5 593.404 177.5C592.216 177.5 591.169 177.695 590.263 178.086C589.357 178.477 588.646 179.031 588.13 179.75C587.615 180.453 587.357 181.297 587.357 182.281C587.357 183.141 587.584 183.891 588.037 184.531C588.49 185.172 589.248 185.758 590.31 186.289C591.373 186.805 592.81 187.328 594.623 187.859C598.326 188.844 601.13 190.203 603.037 191.937C604.943 193.672 605.896 195.883 605.896 198.57C605.896 200.461 605.38 202.117 604.349 203.539C603.334 204.945 601.896 206.039 600.037 206.82C598.193 207.602 596.029 207.992 593.544 207.992ZM618.716 207.945C616.56 207.945 614.88 207.344 613.677 206.141C612.474 204.922 611.873 202.984 611.873 200.328V186.359H608.169V182.141H611.873V175.977H617.755V182.141H622.771V186.359H617.755V200.328C617.755 201.406 617.974 202.195 618.412 202.695C618.865 203.18 619.474 203.422 620.24 203.422C620.677 203.422 621.162 203.383 621.693 203.305C622.24 203.227 622.677 203.148 623.005 203.07L623.615 207.219C622.927 207.422 622.138 207.594 621.248 207.734C620.373 207.875 619.529 207.945 618.716 207.945ZM634.748 207.992C632.169 207.992 630.162 207.328 628.724 206C627.287 204.672 626.568 202.844 626.568 200.516C626.568 198.125 627.544 196.187 629.498 194.703C631.451 193.219 634.24 192.477 637.865 192.477H641.732V190.344C641.732 189 641.326 187.93 640.513 187.133C639.716 186.336 638.552 185.937 637.021 185.937C636.146 185.937 635.373 186.047 634.701 186.266C634.029 186.469 633.427 186.766 632.896 187.156L632.357 190.578H628.021L627.974 184.32C629.224 183.508 630.615 182.867 632.146 182.398C633.677 181.914 635.38 181.672 637.255 181.672C640.474 181.672 643.005 182.43 644.849 183.945C646.709 185.445 647.638 187.602 647.638 190.414V201.594C647.638 201.937 647.638 202.273 647.638 202.602C647.654 202.93 647.677 203.25 647.709 203.562L650.287 203.891V207.5H642.576C642.419 206.953 642.271 206.422 642.13 205.906C642.005 205.391 641.912 204.875 641.849 204.359C641.005 205.422 639.982 206.297 638.779 206.984C637.591 207.656 636.248 207.992 634.748 207.992ZM636.084 203.422C637.271 203.422 638.38 203.148 639.412 202.602C640.443 202.039 641.216 201.336 641.732 200.492V196.25H637.794C636.029 196.25 634.693 196.664 633.787 197.492C632.896 198.305 632.451 199.258 632.451 200.352C632.451 201.336 632.763 202.094 633.388 202.625C634.013 203.156 634.912 203.422 636.084 203.422ZM664.912 207.992C662.537 207.992 660.474 207.453 658.724 206.375C656.99 205.281 655.646 203.781 654.693 201.875C653.755 199.953 653.287 197.742 653.287 195.242V194.422C653.287 191.969 653.755 189.781 654.693 187.859C655.63 185.937 656.966 184.43 658.701 183.336C660.451 182.227 662.513 181.672 664.888 181.672C667.06 181.672 668.951 182.023 670.56 182.727C672.169 183.414 673.49 184.273 674.521 185.305L674.544 192.078H670.044L669.177 187.602C668.74 187.148 668.185 186.789 667.513 186.523C666.841 186.242 666.107 186.102 665.31 186.102C664.013 186.102 662.904 186.453 661.982 187.156C661.076 187.859 660.38 188.836 659.896 190.086C659.427 191.32 659.193 192.766 659.193 194.422V195.242C659.193 197.023 659.435 198.523 659.919 199.742C660.404 200.961 661.076 201.883 661.935 202.508C662.81 203.133 663.81 203.445 664.935 203.445C666.294 203.445 667.396 203.078 668.24 202.344C669.099 201.609 669.662 200.594 669.927 199.297H675.037L675.107 199.437C674.919 201.094 674.427 202.57 673.63 203.867C672.849 205.148 671.74 206.156 670.302 206.891C668.88 207.625 667.084 207.992 664.912 207.992ZM678.084 207.5V203.891L681.623 203.187V175.273L677.873 174.57V170.937H687.505V203.187L690.81 203.891V207.5H678.084ZM694.279 207.5V204.008L696.505 203.609L696.435 203.516L690.435 195.594L693.974 191.445L703.091 203.234L706.466 203.891V207.5H694.279ZM686.943 200.398L684.318 196.648L695.334 186.195L695.404 186.102L692.755 185.75V182.141H704.99V185.773L701.732 186.523L686.943 200.398ZM720.787 207.5V203.891L724.537 203.164V177.758L720.787 177.008V173.375H724.537H735.084C738.13 173.375 740.794 174.094 743.076 175.531C745.373 176.969 747.162 178.945 748.443 181.461C749.724 183.977 750.365 186.859 750.365 190.109V190.789C750.365 193.992 749.74 196.859 748.49 199.391C747.24 201.906 745.474 203.891 743.193 205.344C740.927 206.781 738.279 207.5 735.248 207.5H720.787ZM730.443 202.953H734.943C736.943 202.953 738.646 202.422 740.052 201.359C741.474 200.281 742.56 198.828 743.31 197C744.06 195.156 744.435 193.086 744.435 190.789V190.086C744.435 187.727 744.06 185.641 743.31 183.828C742.56 182 741.474 180.562 740.052 179.516C738.646 178.469 736.943 177.945 734.943 177.945H730.443V202.953ZM765.482 207.992C763.091 207.992 761.005 207.461 759.224 206.398C757.459 205.32 756.084 203.836 755.099 201.945C754.13 200.055 753.646 197.891 753.646 195.453V194.469C753.646 192 754.123 189.805 755.076 187.883C756.044 185.961 757.373 184.445 759.06 183.336C760.748 182.227 762.669 181.672 764.826 181.672C767.123 181.672 769.044 182.133 770.591 183.055C772.154 183.977 773.334 185.289 774.13 186.992C774.927 188.68 775.326 190.711 775.326 193.086V196.461H759.763L759.716 196.578C759.779 197.906 760.052 199.086 760.537 200.117C761.037 201.148 761.74 201.961 762.646 202.555C763.568 203.148 764.685 203.445 765.998 203.445C767.373 203.445 768.623 203.258 769.748 202.883C770.873 202.508 771.912 201.977 772.865 201.289L774.716 204.992C773.716 205.836 772.443 206.547 770.896 207.125C769.349 207.703 767.544 207.992 765.482 207.992ZM759.857 192.312H769.677V191.703C769.677 190.594 769.505 189.625 769.162 188.797C768.834 187.953 768.31 187.297 767.591 186.828C766.888 186.359 765.99 186.125 764.896 186.125C763.943 186.125 763.107 186.391 762.388 186.922C761.669 187.453 761.091 188.18 760.654 189.102C760.232 190.008 759.943 191.039 759.787 192.195L759.857 192.312ZM788.005 207.5L779.779 186.172L777.084 185.773V182.141H788.685V185.773L785.755 186.242L790.326 198.969L790.935 200.984H791.076L791.779 198.969L796.396 186.242L793.185 185.773V182.141H804.763V185.773L801.998 186.195L793.748 207.5H788.005ZM818.263 207.992C815.873 207.992 813.787 207.461 812.005 206.398C810.24 205.32 808.865 203.836 807.88 201.945C806.912 200.055 806.427 197.891 806.427 195.453V194.469C806.427 192 806.904 189.805 807.857 187.883C808.826 185.961 810.154 184.445 811.841 183.336C813.529 182.227 815.451 181.672 817.607 181.672C819.904 181.672 821.826 182.133 823.373 183.055C824.935 183.977 826.115 185.289 826.912 186.992C827.709 188.68 828.107 190.711 828.107 193.086V196.461H812.544L812.498 196.578C812.56 197.906 812.834 199.086 813.318 200.117C813.818 201.148 814.521 201.961 815.427 202.555C816.349 203.148 817.466 203.445 818.779 203.445C820.154 203.445 821.404 203.258 822.529 202.883C823.654 202.508 824.693 201.977 825.646 201.289L827.498 204.992C826.498 205.836 825.224 206.547 823.677 207.125C822.13 207.703 820.326 207.992 818.263 207.992ZM812.638 192.312H822.459V191.703C822.459 190.594 822.287 189.625 821.943 188.797C821.615 187.953 821.091 187.297 820.373 186.828C819.669 186.359 818.771 186.125 817.677 186.125C816.724 186.125 815.888 186.391 815.169 186.922C814.451 187.453 813.873 188.18 813.435 189.102C813.013 190.008 812.724 191.039 812.568 192.195L812.638 192.312ZM831.13 207.5V203.891L834.669 203.187V175.273L830.919 174.57V170.937H840.552V203.187L844.091 203.891V207.5H831.13ZM858.13 207.992C855.693 207.992 853.599 207.445 851.849 206.352C850.099 205.258 848.755 203.742 847.818 201.805C846.88 199.852 846.412 197.609 846.412 195.078V194.586C846.412 192.07 846.88 189.844 847.818 187.906C848.755 185.969 850.099 184.445 851.849 183.336C853.599 182.227 855.677 181.672 858.084 181.672C860.521 181.672 862.615 182.227 864.365 183.336C866.115 184.43 867.459 185.945 868.396 187.883C869.334 189.82 869.802 192.055 869.802 194.586V195.078C869.802 197.609 869.334 199.852 868.396 201.805C867.459 203.742 866.115 205.258 864.365 206.352C862.63 207.445 860.552 207.992 858.13 207.992ZM858.13 203.445C859.443 203.445 860.521 203.094 861.365 202.391C862.224 201.672 862.865 200.687 863.287 199.437C863.709 198.172 863.919 196.719 863.919 195.078V194.586C863.919 192.961 863.709 191.523 863.287 190.273C862.865 189.023 862.224 188.039 861.365 187.32C860.505 186.602 859.412 186.242 858.084 186.242C856.787 186.242 855.709 186.602 854.849 187.32C853.99 188.039 853.349 189.023 852.927 190.273C852.521 191.523 852.318 192.961 852.318 194.586V195.078C852.318 196.719 852.521 198.172 852.927 199.437C853.349 200.687 853.99 201.672 854.849 202.391C855.724 203.094 856.818 203.445 858.13 203.445ZM872.685 217.25V213.617L876.107 212.914V186.477L872.38 185.773V182.141H881.404L881.779 185.141C882.56 184.031 883.513 183.18 884.638 182.586C885.763 181.977 887.091 181.672 888.623 181.672C890.685 181.672 892.451 182.234 893.919 183.359C895.388 184.484 896.505 186.055 897.271 188.07C898.052 190.086 898.443 192.445 898.443 195.148V195.641C898.443 198.109 898.052 200.273 897.271 202.133C896.49 203.977 895.365 205.414 893.896 206.445C892.443 207.477 890.685 207.992 888.623 207.992C887.169 207.992 885.896 207.742 884.802 207.242C883.709 206.727 882.771 205.977 881.99 204.992V212.914L885.599 213.617V217.25H872.685ZM886.841 203.445C888.779 203.445 890.209 202.734 891.13 201.312C892.068 199.875 892.537 197.984 892.537 195.641V195.148C892.537 193.398 892.326 191.867 891.904 190.555C891.498 189.227 890.865 188.195 890.005 187.461C889.162 186.711 888.091 186.336 886.794 186.336C885.701 186.336 884.748 186.586 883.935 187.086C883.138 187.57 882.49 188.258 881.99 189.148V200.773C882.49 201.633 883.138 202.297 883.935 202.766C884.732 203.219 885.701 203.445 886.841 203.445ZM914.169 207.992C911.779 207.992 909.693 207.461 907.912 206.398C906.146 205.32 904.771 203.836 903.787 201.945C902.818 200.055 902.334 197.891 902.334 195.453V194.469C902.334 192 902.81 189.805 903.763 187.883C904.732 185.961 906.06 184.445 907.748 183.336C909.435 182.227 911.357 181.672 913.513 181.672C915.81 181.672 917.732 182.133 919.279 183.055C920.841 183.977 922.021 185.289 922.818 186.992C923.615 188.68 924.013 190.711 924.013 193.086V196.461H908.451L908.404 196.578C908.466 197.906 908.74 199.086 909.224 200.117C909.724 201.148 910.427 201.961 911.334 202.555C912.255 203.148 913.373 203.445 914.685 203.445C916.06 203.445 917.31 203.258 918.435 202.883C919.56 202.508 920.599 201.977 921.552 201.289L923.404 204.992C922.404 205.836 921.13 206.547 919.584 207.125C918.037 207.703 916.232 207.992 914.169 207.992ZM908.544 192.312H918.365V191.703C918.365 190.594 918.193 189.625 917.849 188.797C917.521 187.953 916.998 187.297 916.279 186.828C915.576 186.359 914.677 186.125 913.584 186.125C912.63 186.125 911.794 186.391 911.076 186.922C910.357 187.453 909.779 188.18 909.341 189.102C908.919 190.008 908.63 191.039 908.474 192.195L908.544 192.312ZM927.623 207.5V203.891L931.138 203.187V186.477L927.435 185.773V182.141H936.576L936.88 185.328L936.927 185.844C937.599 184.5 938.419 183.469 939.388 182.75C940.373 182.031 941.521 181.672 942.834 181.672C943.271 181.672 943.732 181.711 944.216 181.789C944.716 181.867 945.123 181.953 945.435 182.047L944.755 187.508L941.451 187.32C940.373 187.258 939.482 187.469 938.779 187.953C938.091 188.437 937.513 189.109 937.044 189.969V203.187L940.56 203.891V207.5H927.623ZM479.287 268.5V264.891L482.99 264.187V238.711L479.287 238.008V234.375H482.99H491.451L501.459 259.055H501.599L511.302 234.375H523.607V238.008L519.88 238.711V264.187L523.607 264.891V268.5H510.271V264.891L514.185 264.187V256.242L514.232 241.312L514.115 241.289L503.544 267.727H499.255L488.38 241.43L488.263 241.453L488.568 255.844V264.187L492.623 264.891V268.5H479.287ZM535.185 268.992C532.607 268.992 530.599 268.328 529.162 267C527.724 265.672 527.005 263.844 527.005 261.516C527.005 259.125 527.982 257.187 529.935 255.703C531.888 254.219 534.677 253.477 538.302 253.477H542.169V251.344C542.169 250 541.763 248.93 540.951 248.133C540.154 247.336 538.99 246.937 537.459 246.937C536.584 246.937 535.81 247.047 535.138 247.266C534.466 247.469 533.865 247.766 533.334 248.156L532.794 251.578H528.459L528.412 245.32C529.662 244.508 531.052 243.867 532.584 243.398C534.115 242.914 535.818 242.672 537.693 242.672C540.912 242.672 543.443 243.43 545.287 244.945C547.146 246.445 548.076 248.602 548.076 251.414V262.594C548.076 262.937 548.076 263.273 548.076 263.602C548.091 263.93 548.115 264.25 548.146 264.562L550.724 264.891V268.5H543.013C542.857 267.953 542.709 267.422 542.568 266.906C542.443 266.391 542.349 265.875 542.287 265.359C541.443 266.422 540.419 267.297 539.216 267.984C538.029 268.656 536.685 268.992 535.185 268.992ZM536.521 264.422C537.709 264.422 538.818 264.148 539.849 263.602C540.88 263.039 541.654 262.336 542.169 261.492V257.25H538.232C536.466 257.25 535.13 257.664 534.224 258.492C533.334 259.305 532.888 260.258 532.888 261.352C532.888 262.336 533.201 263.094 533.826 263.625C534.451 264.156 535.349 264.422 536.521 264.422ZM564.13 268.992C561.412 268.992 559.287 268.133 557.755 266.414C556.24 264.68 555.482 261.992 555.482 258.352V247.477L552.623 246.773V243.141H555.482H561.388V258.398C561.388 260.586 561.732 262.125 562.419 263.016C563.123 263.891 564.201 264.328 565.654 264.328C566.935 264.328 568.021 264.078 568.912 263.578C569.818 263.062 570.537 262.336 571.068 261.398V247.477L567.88 246.773V243.141H571.068H576.974V264.187L579.974 264.891V268.5H571.748L571.349 265.055C570.552 266.32 569.537 267.297 568.302 267.984C567.084 268.656 565.693 268.992 564.13 268.992ZM583.044 268.5V264.891L586.56 264.187V247.477L582.857 246.773V243.141H591.998L592.302 246.328L592.349 246.844C593.021 245.5 593.841 244.469 594.81 243.75C595.794 243.031 596.943 242.672 598.255 242.672C598.693 242.672 599.154 242.711 599.638 242.789C600.138 242.867 600.544 242.953 600.857 243.047L600.177 248.508L596.873 248.32C595.794 248.258 594.904 248.469 594.201 248.953C593.513 249.437 592.935 250.109 592.466 250.969V264.187L595.982 264.891V268.5H583.044ZM614.615 268.992C612.177 268.992 610.084 268.445 608.334 267.352C606.584 266.258 605.24 264.742 604.302 262.805C603.365 260.852 602.896 258.609 602.896 256.078V255.586C602.896 253.07 603.365 250.844 604.302 248.906C605.24 246.969 606.584 245.445 608.334 244.336C610.084 243.227 612.162 242.672 614.568 242.672C617.005 242.672 619.099 243.227 620.849 244.336C622.599 245.43 623.943 246.945 624.88 248.883C625.818 250.82 626.287 253.055 626.287 255.586V256.078C626.287 258.609 625.818 260.852 624.88 262.805C623.943 264.742 622.599 266.258 620.849 267.352C619.115 268.445 617.037 268.992 614.615 268.992ZM614.615 264.445C615.927 264.445 617.005 264.094 617.849 263.391C618.709 262.672 619.349 261.687 619.771 260.437C620.193 259.172 620.404 257.719 620.404 256.078V255.586C620.404 253.961 620.193 252.523 619.771 251.273C619.349 250.023 618.709 249.039 617.849 248.32C616.99 247.602 615.896 247.242 614.568 247.242C613.271 247.242 612.193 247.602 611.334 248.32C610.474 249.039 609.834 250.023 609.412 251.273C609.005 252.523 608.802 253.961 608.802 255.586V256.078C608.802 257.719 609.005 259.172 609.412 260.437C609.834 261.687 610.474 262.672 611.334 263.391C612.209 264.094 613.302 264.445 614.615 264.445ZM655.021 268.5L643.841 238.383L640.935 238.008V234.375H653.334V238.008L650.24 238.5L657.341 259.289L657.974 261.516H658.115L658.771 259.312L665.966 238.477L662.427 238.008V234.375H674.451V238.008L671.498 238.383L660.74 268.5H655.021ZM684.435 268.992C681.857 268.992 679.849 268.328 678.412 267C676.974 265.672 676.255 263.844 676.255 261.516C676.255 259.125 677.232 257.187 679.185 255.703C681.138 254.219 683.927 253.477 687.552 253.477H691.419V251.344C691.419 250 691.013 248.93 690.201 248.133C689.404 247.336 688.24 246.937 686.709 246.937C685.834 246.937 685.06 247.047 684.388 247.266C683.716 247.469 683.115 247.766 682.584 248.156L682.044 251.578H677.709L677.662 245.32C678.912 244.508 680.302 243.867 681.834 243.398C683.365 242.914 685.068 242.672 686.943 242.672C690.162 242.672 692.693 243.43 694.537 244.945C696.396 246.445 697.326 248.602 697.326 251.414V262.594C697.326 262.937 697.326 263.273 697.326 263.602C697.341 263.93 697.365 264.25 697.396 264.562L699.974 264.891V268.5H692.263C692.107 267.953 691.959 267.422 691.818 266.906C691.693 266.391 691.599 265.875 691.537 265.359C690.693 266.422 689.669 267.297 688.466 267.984C687.279 268.656 685.935 268.992 684.435 268.992ZM685.771 264.422C686.959 264.422 688.068 264.148 689.099 263.602C690.13 263.039 690.904 262.336 691.419 261.492V257.25H687.482C685.716 257.25 684.38 257.664 683.474 258.492C682.584 259.305 682.138 260.258 682.138 261.352C682.138 262.336 682.451 263.094 683.076 263.625C683.701 264.156 684.599 264.422 685.771 264.422ZM703.138 268.5V264.891L706.654 264.187V247.477L702.951 246.773V243.141H712.091L712.396 246.328L712.443 246.844C713.115 245.5 713.935 244.469 714.904 243.75C715.888 243.031 717.037 242.672 718.349 242.672C718.787 242.672 719.248 242.711 719.732 242.789C720.232 242.867 720.638 242.953 720.951 243.047L720.271 248.508L716.966 248.32C715.888 248.258 714.998 248.469 714.294 248.953C713.607 249.437 713.029 250.109 712.56 250.969V264.187L716.076 264.891V268.5H703.138ZM734.052 278.742C732.802 278.742 731.412 278.57 729.88 278.227C728.365 277.898 727.029 277.437 725.873 276.844L727.091 272.531C728.091 272.984 729.193 273.352 730.396 273.633C731.599 273.914 732.74 274.055 733.818 274.055C735.755 274.055 737.169 273.516 738.06 272.437C738.966 271.375 739.419 269.867 739.419 267.914V265.922C738.638 266.922 737.709 267.687 736.63 268.219C735.552 268.734 734.318 268.992 732.927 268.992C730.865 268.992 729.084 268.477 727.584 267.445C726.099 266.414 724.959 264.969 724.162 263.109C723.38 261.25 722.99 259.094 722.99 256.641V256.148C722.99 253.445 723.38 251.086 724.162 249.07C724.959 247.055 726.091 245.484 727.56 244.359C729.044 243.234 730.81 242.672 732.857 242.672C734.404 242.672 735.748 242.992 736.888 243.633C738.029 244.258 738.998 245.156 739.794 246.328L740.24 243.141H745.326V267.937C745.326 270.141 744.88 272.047 743.99 273.656C743.099 275.281 741.81 276.531 740.123 277.406C738.435 278.297 736.412 278.742 734.052 278.742ZM734.521 264.328C735.662 264.328 736.63 264.086 737.427 263.602C738.24 263.117 738.904 262.414 739.419 261.492V250.195C738.904 249.305 738.24 248.609 737.427 248.109C736.615 247.594 735.654 247.336 734.544 247.336C733.248 247.336 732.177 247.711 731.334 248.461C730.505 249.195 729.888 250.227 729.482 251.555C729.091 252.867 728.896 254.398 728.896 256.148V256.641C728.896 258.984 729.341 260.852 730.232 262.242C731.138 263.633 732.568 264.328 734.521 264.328ZM744.529 247.594L742.044 243.141H748.373V246.773L744.529 247.594ZM758.966 268.992C756.388 268.992 754.38 268.328 752.943 267C751.505 265.672 750.787 263.844 750.787 261.516C750.787 259.125 751.763 257.187 753.716 255.703C755.669 254.219 758.459 253.477 762.084 253.477H765.951V251.344C765.951 250 765.544 248.93 764.732 248.133C763.935 247.336 762.771 246.937 761.24 246.937C760.365 246.937 759.591 247.047 758.919 247.266C758.248 247.469 757.646 247.766 757.115 248.156L756.576 251.578H752.24L752.193 245.32C753.443 244.508 754.834 243.867 756.365 243.398C757.896 242.914 759.599 242.672 761.474 242.672C764.693 242.672 767.224 243.43 769.068 244.945C770.927 246.445 771.857 248.602 771.857 251.414V262.594C771.857 262.937 771.857 263.273 771.857 263.602C771.873 263.93 771.896 264.25 771.927 264.562L774.505 264.891V268.5H766.794C766.638 267.953 766.49 267.422 766.349 266.906C766.224 266.391 766.13 265.875 766.068 265.359C765.224 266.422 764.201 267.297 762.998 267.984C761.81 268.656 760.466 268.992 758.966 268.992ZM760.302 264.422C761.49 264.422 762.599 264.148 763.63 263.602C764.662 263.039 765.435 262.336 765.951 261.492V257.25H762.013C760.248 257.25 758.912 257.664 758.005 258.492C757.115 259.305 756.669 260.258 756.669 261.352C756.669 262.336 756.982 263.094 757.607 263.625C758.232 264.156 759.13 264.422 760.302 264.422ZM788.029 268.992C786.216 268.992 784.521 268.82 782.943 268.477C781.38 268.117 779.81 267.594 778.232 266.906L778.162 260.203H782.404L783.294 263.859C783.966 264.156 784.654 264.391 785.357 264.562C786.076 264.719 786.873 264.797 787.748 264.797C789.435 264.797 790.623 264.5 791.31 263.906C792.013 263.312 792.365 262.578 792.365 261.703C792.365 260.859 791.998 260.141 791.263 259.547C790.544 258.937 789.162 258.414 787.115 257.977C784.084 257.32 781.849 256.367 780.412 255.117C778.99 253.852 778.279 252.211 778.279 250.195C778.279 248.805 778.646 247.547 779.38 246.422C780.13 245.297 781.224 244.398 782.662 243.727C784.115 243.039 785.896 242.695 788.005 242.695C789.927 242.695 791.63 242.898 793.115 243.305C794.615 243.695 795.888 244.219 796.935 244.875L797.076 251.32H792.88L792.154 247.969C791.669 247.625 791.107 247.359 790.466 247.172C789.826 246.984 789.091 246.891 788.263 246.891C786.966 246.891 785.943 247.18 785.193 247.758C784.443 248.32 784.068 249.031 784.068 249.891C784.068 250.391 784.185 250.844 784.419 251.25C784.669 251.656 785.138 252.031 785.826 252.375C786.529 252.703 787.552 253.023 788.896 253.336C792.193 254.102 794.552 255.102 795.974 256.336C797.396 257.57 798.107 259.203 798.107 261.234C798.107 263.5 797.279 265.359 795.623 266.812C793.966 268.266 791.435 268.992 788.029 268.992Z" fill="#1C0057"/>
</g>
<defs>
<filter id="filter0_d_101_789" x="0.230888" y="0.213128" width="1124.54" height="448.538" filterUnits="userSpaceOnUse" color-interpolation-filters="sRGB">
<feFlood flood-opacity="0" result="BackgroundImageFix"/>
<feColorMatrix in="SourceAlpha" type="matrix" values="0 0 0 0 0 0 0 0 0 0 0 0 0 0 0 0 0 0 127 0" result="hardAlpha"/>
<feOffset dy="4.98224"/>
<feGaussianBlur stdDeviation="32.3846"/>
<feColorMatrix type="matrix" values="0 0 0 0 0 0 0 0 0 0 0 0 0 0 0 0 0 0 0.08 0"/>
<feBlend mode="normal" in2="BackgroundImageFix" result="effect1_dropShadow_101_789"/>
<feBlend mode="normal" in="SourceGraphic" in2="effect1_dropShadow_101_789" result="shape"/>
</filter>
<linearGradient id="paint0_linear_101_789" x1="388.9" y1="383.968" x2="-14.5021" y2="107.847" gradientUnits="userSpaceOnUse">
<stop stop-color="#52C069"/>
<stop offset="1" stop-color="#0EB5C5"/>
</linearGradient>
</defs>
</svg>
