<svg width="323" height="319" viewBox="0 0 323 319" fill="none" xmlns="http://www.w3.org/2000/svg">
<path d="M180.086 10.1514L171.863 4.13205C164.461 -1.28623 154.402 -1.28622 147.001 4.13206L138.778 10.1514C133.767 13.8191 127.393 15.0871 121.36 13.6159L111.46 11.2016C102.548 9.02826 93.255 12.8776 88.4901 20.7159L83.1966 29.4239C79.9712 34.7298 74.5673 38.3406 68.4309 39.29L58.3601 40.8482C49.2949 42.2507 42.1824 49.3633 40.7798 58.4285L39.2217 68.4993C38.2722 74.6356 34.6615 80.0395 29.3555 83.265L20.6476 88.5585C12.8092 93.3233 8.95992 102.616 11.1332 111.528L13.5476 121.429C15.0187 127.461 13.7508 133.836 10.0831 138.846L4.06371 147.069C-1.35457 154.471 -1.35457 164.529 4.06371 171.931L10.0831 180.154C13.7508 185.165 15.0187 191.539 13.5476 197.571L11.1332 207.472C8.95992 216.384 12.8092 225.677 20.6476 230.442L29.3555 235.735C34.6615 238.961 38.2722 244.365 39.2217 250.501L40.7798 260.572C42.1824 269.637 49.2949 276.749 58.3601 278.152L68.4309 279.71C74.5673 280.66 79.9712 284.27 83.1966 289.576L88.4901 298.284C93.255 306.123 102.548 309.972 111.46 307.799L121.36 305.384C127.393 303.913 133.767 305.181 138.778 308.849L147.001 314.868C154.402 320.286 164.461 320.286 171.863 314.868L180.086 308.849C185.096 305.181 191.471 303.913 197.503 305.384L207.404 307.799C216.316 309.972 225.609 306.123 230.373 298.284L235.667 289.576C238.892 284.27 244.296 280.66 250.433 279.71L260.503 278.152C269.569 276.749 276.681 269.637 278.084 260.572L279.642 250.501C280.591 244.365 284.202 238.961 289.508 235.735L298.216 230.442C306.054 225.677 309.904 216.384 307.73 207.472L305.316 197.571C303.845 191.539 305.113 185.165 308.78 180.154L314.8 171.931C320.218 164.529 320.218 154.471 314.8 147.069L308.78 138.846C305.113 133.836 303.845 127.461 305.316 121.429L307.73 111.528C309.904 102.616 306.054 93.3234 298.216 88.5585L289.508 83.265C284.202 80.0395 280.591 74.6356 279.642 68.4993L278.084 58.4285C276.681 49.3633 269.569 42.2507 260.503 40.8482L250.433 39.29C244.296 38.3406 238.892 34.7298 235.667 29.4239L230.373 20.7159C225.609 12.8775 216.316 9.02826 207.404 11.2016L197.503 13.6159C191.471 15.0871 185.096 13.8191 180.086 10.1514Z" fill="url(#paint0_linear_302_338)"/>
<path d="M180.086 10.1514L171.863 4.13205C164.461 -1.28623 154.402 -1.28622 147.001 4.13206L138.778 10.1514C133.767 13.8191 127.393 15.0871 121.36 13.6159L111.46 11.2016C102.548 9.02826 93.255 12.8776 88.4901 20.7159L83.1966 29.4239C79.9712 34.7298 74.5673 38.3406 68.4309 39.29L58.3601 40.8482C49.2949 42.2507 42.1824 49.3633 40.7798 58.4285L39.2217 68.4993C38.2722 74.6356 34.6615 80.0395 29.3555 83.265L20.6476 88.5585C12.8092 93.3233 8.95992 102.616 11.1332 111.528L13.5476 121.429C15.0187 127.461 13.7508 133.836 10.0831 138.846L4.06371 147.069C-1.35457 154.471 -1.35457 164.529 4.06371 171.931L10.0831 180.154C13.7508 185.165 15.0187 191.539 13.5476 197.571L11.1332 207.472C8.95992 216.384 12.8092 225.677 20.6476 230.442L29.3555 235.735C34.6615 238.961 38.2722 244.365 39.2217 250.501L40.7798 260.572C42.1824 269.637 49.2949 276.749 58.3601 278.152L68.4309 279.71C74.5673 280.66 79.9712 284.27 83.1966 289.576L88.4901 298.284C93.255 306.123 102.548 309.972 111.46 307.799L121.36 305.384C127.393 303.913 133.767 305.181 138.778 308.849L147.001 314.868C154.402 320.286 164.461 320.286 171.863 314.868L180.086 308.849C185.096 305.181 191.471 303.913 197.503 305.384L207.404 307.799C216.316 309.972 225.609 306.123 230.373 298.284L235.667 289.576C238.892 284.27 244.296 280.66 250.433 279.71L260.503 278.152C269.569 276.749 276.681 269.637 278.084 260.572L279.642 250.501C280.591 244.365 284.202 238.961 289.508 235.735L298.216 230.442C306.054 225.677 309.904 216.384 307.73 207.472L305.316 197.571C303.845 191.539 305.113 185.165 308.78 180.154L314.8 171.931C320.218 164.529 320.218 154.471 314.8 147.069L308.78 138.846C305.113 133.836 303.845 127.461 305.316 121.429L307.73 111.528C309.904 102.616 306.054 93.3234 298.216 88.5585L289.508 83.265C284.202 80.0395 280.591 74.6356 279.642 68.4993L278.084 58.4285C276.681 49.3633 269.569 42.2507 260.503 40.8482L250.433 39.29C244.296 38.3406 238.892 34.7298 235.667 29.4239L230.373 20.7159C225.609 12.8775 216.316 9.02826 207.404 11.2016L197.503 13.6159C191.471 15.0871 185.096 13.8191 180.086 10.1514Z" fill="white" fill-opacity="0.25"/>
<path fill-rule="evenodd" clip-rule="evenodd" d="M180.792 12.2435L172.466 6.22412C165.895 1.47334 156.965 1.47335 150.394 6.22413L142.068 12.2435C136.37 16.363 129.12 17.7872 122.259 16.1348L112.235 13.7204C104.323 11.8149 96.0727 15.19 91.8424 22.0627L86.4826 30.7707C82.8144 36.7302 76.6687 40.7858 69.69 41.8522L59.493 43.4104C51.4449 44.6401 45.1304 50.8765 43.8853 58.8249L42.3076 68.8957C41.2278 75.788 37.1214 81.8577 31.0871 85.4804L22.27 90.7739C15.3111 94.9518 11.8938 103.1 13.8232 110.914L16.2678 120.814C17.9409 127.59 16.4989 134.75 12.3277 140.377L6.23293 148.6C1.42261 155.09 1.42261 163.91 6.23294 170.4L12.3277 178.623C16.4989 184.25 17.9409 191.41 16.2678 198.186L13.8232 208.086C11.8938 215.9 15.3111 224.048 22.27 228.226L31.0871 233.52C37.1214 237.143 41.2278 243.212 42.3076 250.104L43.8853 260.175C45.1304 268.124 51.4449 274.36 59.493 275.59L69.69 277.148C76.6687 278.214 82.8144 282.27 86.4826 288.23L91.8425 296.937C96.0727 303.81 104.323 307.185 112.235 305.28L122.26 302.865C129.12 301.213 136.369 302.637 142.068 306.757L150.394 312.776C156.965 317.527 165.895 317.527 172.466 312.776L180.792 306.757C186.49 302.637 193.74 301.213 200.601 302.865L210.625 305.28C218.537 307.185 226.787 303.81 231.018 296.937L236.377 288.23C240.046 282.27 246.191 278.214 253.17 277.148L263.367 275.59C271.415 274.36 277.73 268.124 278.975 260.175L280.552 250.104C281.632 243.212 285.739 237.143 291.773 233.52L300.59 228.226C307.549 224.048 310.966 215.9 309.037 208.086L306.592 198.186C304.919 191.41 306.361 184.25 310.532 178.623L316.627 170.4C321.437 163.91 321.437 155.09 316.627 148.6L310.532 140.377C306.361 134.75 304.919 127.59 306.592 120.814L309.037 110.914C310.966 103.1 307.549 94.9518 300.59 90.7739L291.773 85.4804C285.739 81.8576 281.632 75.788 280.552 68.8957L278.975 58.8249C277.729 50.8765 271.415 44.6401 263.367 43.4104L253.17 41.8522C246.191 40.7858 240.046 36.7302 236.377 30.7706L231.018 22.0627C226.787 15.19 218.537 11.8149 210.625 13.7204L200.601 16.1348C193.74 17.7872 186.49 16.363 180.792 12.2435ZM174.017 4.13205L182.343 10.1514C187.416 13.8191 193.87 15.0871 199.979 13.6159L210.003 11.2016C219.027 9.02826 228.436 12.8775 233.261 20.7159L238.621 29.4239C241.886 34.7298 247.358 38.3406 253.571 39.29L263.768 40.8482C272.947 42.2507 280.149 49.3633 281.569 58.4285L283.147 68.4993C284.108 74.6356 287.764 80.0395 293.137 83.265L301.954 88.5584C309.89 93.3233 313.788 102.616 311.587 111.528L309.143 121.429C307.653 127.461 308.937 133.836 312.651 138.846L318.745 147.069C324.232 154.471 324.232 164.529 318.745 171.931L312.651 180.154C308.937 185.165 307.653 191.539 309.143 197.571L311.587 207.472C313.788 216.384 309.89 225.677 301.954 230.442L293.137 235.735C287.764 238.961 284.108 244.365 283.147 250.501L281.569 260.572C280.149 269.637 272.947 276.749 263.768 278.152L253.571 279.71C247.358 280.66 241.886 284.27 238.621 289.576L233.261 298.284C228.436 306.123 219.027 309.972 210.003 307.799L199.979 305.384C193.87 303.913 187.416 305.181 182.343 308.849L174.017 314.868C166.522 320.286 156.338 320.286 148.843 314.868L140.517 308.849C135.444 305.181 128.99 303.913 122.881 305.384L112.857 307.799C103.833 309.972 94.4238 306.123 89.5992 298.284L84.2394 289.576C80.9735 284.27 75.5019 280.66 69.2886 279.71L59.0916 278.152C49.9128 276.749 42.7111 269.637 41.2909 260.572L39.7132 250.501C38.7519 244.365 35.0959 238.961 29.7235 235.735L20.9064 230.442C12.9697 225.677 9.07222 216.384 11.2728 207.472L13.7174 197.571C15.207 191.539 13.9231 185.165 10.2095 180.154L4.11465 171.931C-1.37155 164.529 -1.37155 154.471 4.11464 147.069L10.2094 138.846C13.9231 133.836 15.207 127.461 13.7174 121.429L11.2727 111.528C9.07222 102.616 12.9697 93.3233 20.9064 88.5584L29.7235 83.265C35.0959 80.0395 38.7519 74.6356 39.7132 68.4993L41.2909 58.4285C42.7111 49.3633 49.9128 42.2507 59.0916 40.8482L69.2886 39.29C75.5019 38.3406 80.9735 34.7298 84.2394 29.4239L89.5992 20.7159C94.4238 12.8775 103.833 9.02826 112.857 11.2016L122.881 13.6159C128.99 15.0871 135.444 13.8191 140.517 10.1514L148.843 4.13206C156.338 -1.28622 166.522 -1.28623 174.017 4.13205Z" fill="#1C0057"/>
<path d="M183 92.5714V178.571H75.5V92.5714H183ZM75.5 68C63.6414 68 54 79.0188 54 92.5714V178.571C54 192.124 63.6414 203.143 75.5 203.143H114.905L111.311 215.429H86.25C80.3039 215.429 75.5 220.919 75.5 227.714C75.5 234.51 80.3039 240 86.25 240H172.25C178.196 240 183 234.51 183 227.714C183 220.919 178.196 215.429 172.25 215.429H147.155L143.561 203.143H183C194.859 203.143 204.5 192.124 204.5 178.571V92.5714C204.5 79.0188 194.859 68 183 68H75.5ZM231.375 68C222.473 68 215.25 76.2545 215.25 86.4286V221.571C215.25 231.746 222.473 240 231.375 240H252.875C261.777 240 269 231.746 269 221.571V86.4286C269 76.2545 261.777 68 252.875 68H231.375ZM236.75 92.5714H247.5C250.456 92.5714 252.875 95.3357 252.875 98.7143C252.875 102.093 250.456 104.857 247.5 104.857H236.75C233.794 104.857 231.375 102.093 231.375 98.7143C231.375 95.3357 233.794 92.5714 236.75 92.5714ZM231.375 123.286C231.375 119.907 233.794 117.143 236.75 117.143H247.5C250.456 117.143 252.875 119.907 252.875 123.286C252.875 126.664 250.456 129.429 247.5 129.429H236.75C233.794 129.429 231.375 126.664 231.375 123.286ZM242.125 184.714C244.976 184.714 247.71 186.009 249.726 188.313C251.742 190.617 252.875 193.742 252.875 197C252.875 200.258 251.742 203.383 249.726 205.687C247.71 207.991 244.976 209.286 242.125 209.286C239.274 209.286 236.54 207.991 234.524 205.687C232.508 203.383 231.375 200.258 231.375 197C231.375 193.742 232.508 190.617 234.524 188.313C236.54 186.009 239.274 184.714 242.125 184.714Z" fill="black"/>
<defs>
<linearGradient id="paint0_linear_302_338" x1="323.9" y1="323.968" x2="-79.5021" y2="47.8466" gradientUnits="userSpaceOnUse">
<stop stop-color="#52C069"/>
<stop offset="1" stop-color="#0EB5C5"/>
</linearGradient>
</defs>
</svg>
